<?xml version="1.0" encoding="UTF-8" standalone="no"?>
<!DOCTYPE svg PUBLIC "-//W3C//DTD SVG 1.1//EN" "http://www.w3.org/Graphics/SVG/1.1/DTD/svg11.dtd">
<svg width="100%" height="100%" viewBox="0 0 59 58" version="1.1" xmlns="http://www.w3.org/2000/svg" xmlns:xlink="http://www.w3.org/1999/xlink" xml:space="preserve" xmlns:serif="http://www.serif.com/" style="fill-rule:evenodd;clip-rule:evenodd;stroke-linejoin:round;stroke-miterlimit:2;">
    <g transform="matrix(1,0,0,1,-61.9957,0)">
        <g transform="matrix(1,0,0,1,9,0)">
            <rect x="52.996" y="0" width="58.021" height="58" style="fill:rgb(235,235,235);fill-opacity:0;"/>
        </g>
        <g transform="matrix(1,0,0,1,66.0687,-0.424902)">
            <path d="M42.763,41.269C50.635,33.677 50.635,21.366 42.763,13.774C34.89,6.181 22.127,6.181 14.254,13.774C6.382,21.366 6.382,33.677 14.254,41.269C22.127,48.862 34.89,48.862 42.763,41.269Z" style="fill:rgb(41,41,110);fill-rule:nonzero;"/>
        </g>
        <g transform="matrix(1,0,0,1,66.0687,-0.424902)">
            <path d="M28.504,47.349C23.276,47.356 18.239,45.45 14.41,42.016C10.581,38.582 8.245,33.875 7.873,28.845C7.501,23.815 9.12,18.836 12.404,14.912C15.689,10.988 20.394,8.412 25.57,7.702C30.747,6.993 36.01,8.203 40.298,11.089C44.585,13.975 47.579,18.322 48.674,23.252C49.77,28.183 48.886,33.332 46.2,37.659C43.515,41.986 39.228,45.169 34.205,46.568C32.352,47.085 30.433,47.348 28.504,47.349ZM28.54,8.462C25.003,8.458 21.528,9.368 18.48,11.1C15.431,12.831 12.92,15.319 11.207,18.305C5.939,27.506 9.413,39.126 18.955,44.207C23.544,46.649 28.95,47.234 33.986,45.833C39.022,44.432 43.275,41.159 45.811,36.735C51.079,27.534 47.604,15.914 38.064,10.833C35.149,9.277 31.872,8.461 28.54,8.462Z" style="fill-rule:nonzero;"/>
        </g>
        <g transform="matrix(1,0,0,1,66.0687,-0.424902)">
            <path d="M45.708,17.372C45.708,17.372 42.83,20.995 43.1,23.951C43.37,26.907 40.967,28.654 40.967,28.654C40.967,28.654 37.844,30.288 38.121,35.682C38.397,41.076 34.27,41.525 34.27,41.525C34.27,41.525 32.097,41.991 32.708,36.909C33.319,31.827 27.676,35.418 27.676,35.418C27.676,35.418 22.145,38.42 26.662,28.768C26.662,28.768 28.593,25.2 31.729,23.247C34.864,21.294 31.573,20.19 31.573,20.19C31.573,20.19 29.004,20.174 28.178,17.895C27.352,15.617 24.111,15.891 24.111,15.891C24.111,15.891 20.542,16.154 19.397,12.57L18.836,10.463C18.836,10.463 30.087,3.84 41.756,12.86C41.756,12.86 44.737,15.673 45.708,17.372Z" style="fill:rgb(55,240,137);fill-rule:nonzero;"/>
        </g>
        <g transform="matrix(1,0,0,1,66.0687,-0.424902)">
            <path d="M29.727,46.93C29.727,46.93 30.379,44.697 27.261,43.091C24.143,41.484 21.87,42.816 20.002,39.711C18.134,36.606 17.538,36.182 19.233,31.949C20.928,27.715 16.903,25.734 16.903,25.734C16.903,25.734 14.647,24.585 12.975,26.616C11.302,28.648 8.345,27.265 8.345,27.265C8.345,27.265 7.991,40.032 20.926,45.539C20.93,45.539 25.267,47.297 29.727,46.93Z" style="fill:rgb(55,240,137);fill-rule:nonzero;"/>
        </g>
        <g transform="matrix(1,0,0,1,66.0687,-0.424902)">
            <path d="M15.09,13.008C15.281,14.067 15.741,15.588 17.031,16.662C18.927,18.244 21.026,17.533 22.967,19.066C23.757,19.69 24.731,20.85 25.142,23.198C25.161,23.427 25.177,23.747 25.169,24.131C25.174,24.478 25.144,24.825 25.081,25.166C24.97,25.643 24.579,26.543 23.916,26.709C22.82,26.985 21.27,25.207 21.209,25.162C20.483,24.179 19.591,23.32 18.572,22.621C17.429,21.841 16.07,20.913 14.611,21.214C13.87,21.368 13.742,21.706 12.86,22.12C11.647,22.691 10.318,22.795 8.992,22.631C8.992,22.627 10.269,17.071 15.09,13.008Z" style="fill:rgb(55,240,137);fill-rule:nonzero;"/>
        </g>
        <g opacity="0.5">
            <g transform="matrix(1,0,0,1,66.0687,-0.424902)">
                <path d="M48.144,31.935C48.347,30.051 48.811,23.494 44.321,17.6C42.464,15.204 40.074,13.238 37.328,11.847C32.086,9.184 27.121,9.418 24.986,9.654C20.886,10.118 17.008,11.699 13.805,14.211C14.938,13.069 19.755,8.465 27.408,8.062C30.612,7.893 34.27,8.501 38.263,10.507C38.263,10.507 50.163,15.546 48.144,31.935Z" style="fill:white;fill-rule:nonzero;"/>
            </g>
        </g>
        <g transform="matrix(1,0,0,1,66.0687,-0.424902)">
            <path d="M28.504,47.349C23.276,47.356 18.239,45.45 14.41,42.016C10.581,38.582 8.245,33.875 7.873,28.845C7.501,23.815 9.12,18.836 12.404,14.912C15.689,10.988 20.394,8.412 25.57,7.702C30.747,6.993 36.01,8.203 40.298,11.089C44.585,13.975 47.579,18.322 48.674,23.252C49.77,28.183 48.886,33.332 46.2,37.659C43.515,41.986 39.228,45.169 34.205,46.568C32.352,47.085 30.433,47.348 28.504,47.349ZM28.54,8.462C25.003,8.458 21.528,9.368 18.48,11.1C15.431,12.831 12.92,15.319 11.207,18.305C5.939,27.506 9.413,39.126 18.955,44.207C23.544,46.649 28.95,47.234 33.986,45.833C39.022,44.432 43.275,41.159 45.811,36.735C51.079,27.534 47.604,15.914 38.064,10.833C35.149,9.277 31.872,8.461 28.54,8.462Z" style="fill:rgb(0,11,30);fill-rule:nonzero;"/>
        </g>
        <g opacity="0.25">
            <g transform="matrix(1,0,0,1,66.0687,-0.424902)">
                <path d="M15.089,13.008C10.648,21.86 13.955,32.562 22.48,37.531C30.679,42.31 41.548,40.53 47.782,33.241C47.166,35.182 45.205,40.425 39.812,43.863C32.617,48.446 22.488,47.797 15.697,42.35C10.552,38.224 7.55,31.524 8.551,24.719C9.501,18.223 13.712,14.212 15.089,13.008Z" style="fill-rule:nonzero;"/>
            </g>
        </g>
        <g transform="matrix(1,0,0,1,66.0687,-0.424902)">
            <path d="M5.362,51.346C3.644,51.346 2.351,50.826 1.521,49.8C-0.937,46.41 3.02,41.676 5.137,39.132L5.161,39.105C6.423,37.667 7.753,36.276 9.234,34.846C11.987,32.19 15.186,29.476 19.308,26.309C19.402,26.235 21.265,24.691 23.066,23.196C25.696,21.015 26.942,19.982 27.003,19.936L27.346,19.678L27.587,20.027C27.831,20.378 28.401,20.836 28.953,21.279C29.732,21.904 30.541,22.552 30.849,23.195L30.981,23.465L30.744,23.658C29.588,24.601 27.531,26.17 25.152,27.976C20.108,31.811 13.832,36.587 11.703,38.784C10.627,39.892 9.665,40.929 8.76,41.969C7.86,43.035 6.926,44.191 6.196,45.371C5.789,46.046 5.455,46.627 5.309,47.188L5.487,47.202L5.517,47.202C7.546,47.202 9.705,46.487 11.61,45.852C13.389,45.191 15.2,44.46 16.979,43.685L17.182,43.596L17.369,43.715C18.183,44.238 19.036,44.703 19.921,45.106L20.609,45.42L19.953,45.794C13.503,49.479 8.596,51.346 5.362,51.346Z" style="fill:rgb(0,30,30);fill-rule:nonzero;"/>
        </g>
        <g transform="matrix(1,0,0,1,66.0687,-0.424902)">
            <path d="M11.74,46.222C9.689,46.902 7.553,47.603 5.47,47.593C5.257,47.589 5.046,47.554 4.843,47.491C4.843,47.523 4.843,47.544 4.843,47.543C4.83,47.517 4.813,47.494 4.791,47.475C4.783,47.465 4.773,47.456 4.763,47.449C4.75,47.442 4.734,47.437 4.722,47.429C4.722,47.429 4.743,47.429 4.763,47.449C4.79,47.466 4.819,47.48 4.848,47.491L4.848,47.45C4.948,46.69 5.386,45.942 5.851,45.171C6.573,44.001 7.497,42.847 8.449,41.712C9.402,40.622 10.393,39.557 11.405,38.513C14.582,35.236 26.913,26.267 30.486,23.356C29.992,22.339 27.873,21.135 27.254,20.238C27.134,20.328 19.68,26.52 19.562,26.61C16.067,29.295 12.678,32.072 9.521,35.116C8.123,36.468 6.768,37.874 5.477,39.345C3.499,41.713 -0.442,46.413 1.838,49.557C4.452,52.786 11.8,49.996 19.746,45.459C18.844,45.048 17.974,44.574 17.143,44.042C15.362,44.818 13.561,45.545 11.74,46.222Z" style="fill:url(#_Linear1);fill-rule:nonzero;"/>
        </g>
        <g transform="matrix(1,0,0,1,66.0687,-0.424902)">
            <path d="M18.526,33.656C18.463,33.569 17.017,31.511 17.648,29.6L17.713,29.401C17.82,29.031 17.962,28.672 18.136,28.327C17.057,28.311 16.018,27.926 15.205,27.241C15.205,27.241 14.692,26.685 14.863,26.423C15.045,26.147 15.909,26.164 15.91,26.164C15.953,26.17 15.996,26.173 16.039,26.173C16.448,26.173 17.896,25.88 19.366,22.119C20.259,19.833 22.531,18.677 24.386,18.545C24.529,18.534 24.67,18.529 24.81,18.529C26.068,18.529 27.915,18.938 29.562,20.878L29.601,20.923C33.271,25.068 29.163,28.992 28.683,29.429C25.264,32.519 20.974,32.815 20.793,32.826L20.486,31.769C19.86,32.575 19.759,33.309 19.752,33.358L19.54,35.057L18.526,33.656Z" style="fill:rgb(0,30,30);fill-rule:nonzero;"/>
        </g>
        <g transform="matrix(1,0,0,1,66.0687,-0.424902)">
            <path d="M20.75,32.181C20.75,32.181 22.379,31.356 21.962,29.798C19.331,31.053 19.082,33.286 19.082,33.286C19.082,33.286 17.754,31.427 18.292,29.796C18.577,28.934 18.73,28.215 19.926,27.288C17.432,28.403 15.672,26.777 15.672,26.777C15.672,26.777 17.935,27.628 19.997,22.353C20.812,20.267 22.866,19.31 24.436,19.2C27.247,18.995 28.865,21.099 29.088,21.353C32.371,25.056 28.658,28.568 28.222,28.963C24.941,31.923 20.75,32.181 20.75,32.181Z" style="fill:url(#_Linear2);fill-rule:nonzero;"/>
        </g>
        <g transform="matrix(1,0,0,1,66.0687,-0.424902)">
            <path d="M21.642,28.957C21.642,28.957 23.836,28.345 24.092,27.592C23.517,27.962 22.526,27.886 21.681,28.323C20.689,28.834 20.107,30.141 20.107,30.141C20.107,30.141 19.461,28.642 20.319,27.608C20.947,26.856 21.927,26.541 22.424,25.566C20.207,27.397 18.93,26.605 18.93,26.605C18.93,26.605 20.35,26.365 20.836,23.876C20.958,23.205 21.231,22.568 21.636,22.01C22.414,20.97 23.556,20.315 24.771,20.209C25.884,20.107 26.963,20.493 27.81,21.281C28.022,21.476 28.203,21.682 28.377,21.877C30.918,24.748 28.043,27.47 27.705,27.777C25.171,30.076 21.642,28.957 21.642,28.957Z" style="fill:url(#_Linear3);fill-rule:nonzero;"/>
        </g>
        <g transform="matrix(1,0,0,1,66.0687,-0.424902)">
            <path d="M22.592,22.547C21.91,23.568 22.11,25.127 21.188,25.954C21.879,25.56 22.339,25.178 22.574,24.728C22.953,24.004 23.49,23.66 23.823,23.75C23.366,24.555 23.323,25.291 22.976,25.876C22.447,26.777 21.599,26.569 21.371,27.981C22.091,27.224 22.826,27.494 23.84,27.185C24.711,26.919 25.58,26.163 25.723,25.468C25.849,25.817 25.871,26.329 25.723,26.67C25.352,27.514 24.534,28.13 24.09,28.466C25.401,28.276 26.307,27.786 27.363,26.82C28.242,26.017 29.817,23.807 27.324,21.72C25.755,20.408 23.655,20.96 22.592,22.547Z" style="fill:url(#_Linear4);fill-rule:nonzero;"/>
        </g>
        <g transform="matrix(1,0,0,1,66.0687,-0.424902)">
            <path d="M23.39,21.485C23.235,21.485 23.083,21.446 22.948,21.374C22.812,21.301 22.699,21.195 22.618,21.068C22.537,20.941 22.491,20.795 22.485,20.646C22.479,20.497 22.513,20.348 22.583,20.215C22.833,19.742 23.268,18.927 23.918,17.732C25.103,15.557 28.005,15.201 28.128,15.188L29.04,15.086L27.802,21.401L23.39,21.485Z" style="fill:rgb(0,30,30);fill-rule:nonzero;"/>
        </g>
        <g transform="matrix(1,0,0,1,66.0687,-0.424902)">
            <path d="M28.204,15.832C28.204,15.832 25.546,16.138 24.512,18.034C23.838,19.272 23.403,20.09 23.181,20.51C23.163,20.544 23.155,20.583 23.157,20.621C23.158,20.66 23.171,20.698 23.192,20.73C23.213,20.763 23.243,20.79 23.278,20.809C23.313,20.827 23.353,20.836 23.393,20.836L27.235,20.762L28.204,15.832Z" style="fill:rgb(0,218,99);fill-rule:nonzero;"/>
        </g>
        <g transform="matrix(1,0,0,1,66.0687,-0.424902)">
            <path d="M29.366,27.978C29.237,27.977 29.109,27.951 28.991,27.899C28.874,27.847 28.769,27.771 28.684,27.677C28.599,27.583 28.536,27.473 28.499,27.353C28.462,27.233 28.452,27.107 28.469,26.984L29.073,22.79L35.724,22.346L35.513,23.207C35.484,23.322 34.777,26.059 32.397,26.938C30.996,27.455 30.096,27.777 29.683,27.923C29.582,27.96 29.475,27.978 29.366,27.978Z" style="fill:rgb(0,30,30);fill-rule:nonzero;"/>
        </g>
        <g transform="matrix(1,0,0,1,66.0687,-0.424902)">
            <path d="M34.853,23.055C34.853,23.055 34.228,25.565 32.151,26.331C30.798,26.832 29.903,27.148 29.445,27.315C29.408,27.328 29.367,27.332 29.327,27.325C29.288,27.319 29.251,27.303 29.219,27.278C29.188,27.254 29.164,27.222 29.149,27.186C29.134,27.15 29.13,27.111 29.135,27.073L29.665,23.402L34.853,23.055Z" style="fill:rgb(0,218,99);fill-rule:nonzero;"/>
        </g>
        <g transform="matrix(1,0,0,1,66.0687,-0.424902)">
            <path d="M26.328,24.783C26.194,24.783 26.062,24.754 25.941,24.699C25.82,24.643 25.713,24.563 25.628,24.463C25.543,24.363 25.482,24.247 25.449,24.122C25.417,23.996 25.413,23.866 25.439,23.739C25.588,23.014 26.075,20.725 27.383,15.165L27.392,15.131C29.069,9.411 33.256,8.793 34.978,8.793C35.283,8.79 35.589,8.811 35.89,8.858L36.118,8.898L37.436,10.328L36.801,10.742C36.695,10.81 36.589,10.879 36.49,10.946C35.978,11.3 35.487,11.682 35.022,12.091C34.538,12.516 34.082,12.969 33.654,13.446C33.216,13.934 32.81,14.448 32.438,14.985C32.147,15.404 31.879,15.837 31.634,16.282C31.59,16.362 31.564,16.449 31.557,16.539C31.55,16.629 31.562,16.72 31.593,16.805C31.65,16.939 31.733,17.062 31.837,17.167L32.007,17.345L33.888,19.388C34.015,19.525 34.172,19.694 34.406,19.744C34.452,19.754 34.498,19.759 34.544,19.759C34.756,19.759 34.989,19.657 35.19,19.569L35.34,19.503C35.703,19.353 36.068,19.184 36.429,19.001L36.641,18.891C37.227,18.582 37.793,18.239 38.335,17.864C38.862,17.498 39.367,17.103 39.846,16.68C40.292,16.288 40.714,15.87 41.109,15.429L41.612,14.866L42.928,16.296L42.943,16.519C42.943,16.581 43.26,22.727 35.482,23.92L35.447,23.92C29.581,24.515 27.168,24.713 26.404,24.77L26.333,24.77L26.328,24.783Z" style="fill:rgb(0,30,30);fill-rule:nonzero;"/>
        </g>
        <g transform="matrix(1,0,0,1,66.0687,-0.424902)">
            <path d="M35.369,23.285C29.545,23.876 27.121,24.076 26.344,24.134C26.308,24.136 26.272,24.131 26.239,24.118C26.206,24.105 26.176,24.084 26.152,24.059C26.129,24.033 26.111,24.002 26.102,23.969C26.093,23.935 26.091,23.9 26.098,23.866C26.25,23.129 26.74,20.83 28.038,15.309C30.041,8.481 35.769,9.497 35.769,9.497L36.421,10.206C36.315,10.276 36.204,10.35 36.096,10.423C35.562,10.792 35.05,11.19 34.565,11.617C34.062,12.06 33.586,12.53 33.14,13.027C32.682,13.535 32.258,14.071 31.869,14.63C31.566,15.068 31.287,15.52 31.031,15.984C30.944,16.144 30.892,16.318 30.878,16.498C30.864,16.677 30.889,16.857 30.95,17.027C31.035,17.241 31.162,17.437 31.326,17.603C31.356,17.636 31.388,17.669 31.418,17.705C31.449,17.742 31.47,17.76 31.495,17.787L33.376,19.83C33.537,20.004 33.807,20.298 34.256,20.391C34.738,20.493 35.158,20.305 35.464,20.17C35.51,20.148 35.556,20.128 35.601,20.11C35.981,19.951 36.363,19.775 36.734,19.587L36.956,19.472C38.161,18.835 39.283,18.061 40.297,17.166C40.763,16.756 41.203,16.32 41.615,15.86L42.268,16.568C42.268,16.568 42.635,22.172 35.369,23.285Z" style="fill:rgb(6,188,84);fill-rule:nonzero;"/>
        </g>
        <g transform="matrix(1,0,0,1,66.0687,-0.424902)">
            <path d="M34.535,20.496C34.435,20.496 34.336,20.487 34.238,20.467C33.762,20.365 33.481,20.058 33.313,19.88L31.432,17.837L31.356,17.756C31.145,17.558 30.979,17.319 30.871,17.056C30.805,16.875 30.778,16.683 30.793,16.492C30.808,16.302 30.863,16.116 30.955,15.946C31.212,15.479 31.493,15.025 31.797,14.585C32.569,13.474 33.478,12.457 34.503,11.557C34.991,11.127 35.504,10.727 36.042,10.356C36.555,10.004 37.091,9.682 37.647,9.394C38.17,9.123 38.712,8.889 39.27,8.693C39.791,8.509 40.328,8.371 40.874,8.278C41.267,8.212 41.666,8.178 42.065,8.176C42.184,8.176 42.301,8.176 42.42,8.186C42.667,8.199 42.913,8.229 43.156,8.275C43.281,8.298 43.399,8.326 43.517,8.359C43.764,8.416 43.984,8.555 44.137,8.751C44.193,8.82 44.239,8.896 44.275,8.977C44.335,9.122 44.37,9.275 44.381,9.431L44.386,9.475C44.406,9.65 44.416,9.826 44.416,10.002C44.413,10.494 44.349,10.984 44.223,11.461C44.091,11.973 43.91,12.471 43.683,12.95C43.439,13.463 43.156,13.958 42.836,14.431C42.495,14.933 42.12,15.413 41.714,15.868C41.288,16.347 40.832,16.8 40.348,17.226C39.848,17.669 39.32,18.082 38.768,18.464C38.201,18.857 37.609,19.216 36.997,19.539L36.773,19.655C36.402,19.844 36.018,20.02 35.634,20.181C35.59,20.198 35.546,20.219 35.5,20.239C35.241,20.353 34.919,20.496 34.536,20.496L34.535,20.496ZM37.658,13.213C37.426,13.213 37.201,13.29 37.021,13.43C36.84,13.571 36.715,13.767 36.666,13.986C36.617,14.205 36.648,14.434 36.753,14.633C36.858,14.833 37.03,14.992 37.242,15.084C37.454,15.176 37.692,15.195 37.916,15.138C38.141,15.081 38.338,14.951 38.476,14.771C38.613,14.591 38.682,14.37 38.672,14.146C38.661,13.923 38.571,13.709 38.417,13.542C38.322,13.438 38.205,13.355 38.074,13.299C37.944,13.242 37.802,13.213 37.658,13.213Z" style="fill:rgb(0,30,30);fill-rule:nonzero;"/>
        </g>
        <g transform="matrix(1,0,0,1,66.0687,-0.424902)">
            <path d="M39.893,16.747C40.357,16.339 40.794,15.904 41.202,15.445C41.589,15.012 41.946,14.554 42.271,14.075C42.573,13.633 42.84,13.169 43.069,12.687C43.279,12.246 43.447,11.787 43.569,11.315C43.68,10.888 43.737,10.45 43.739,10.009C43.739,9.856 43.73,9.704 43.713,9.552C43.708,9.445 43.688,9.34 43.654,9.239C43.64,9.209 43.623,9.181 43.603,9.155C43.537,9.069 43.44,9.009 43.331,8.99C43.225,8.961 43.127,8.939 43.024,8.918C42.81,8.878 42.594,8.852 42.378,8.84C41.912,8.817 41.445,8.845 40.985,8.923C40.478,9.009 39.98,9.138 39.496,9.308C38.97,9.492 38.458,9.712 37.964,9.966C37.434,10.241 36.922,10.548 36.433,10.885C35.917,11.24 35.424,11.625 34.956,12.037C34.469,12.463 34.01,12.918 33.58,13.398C33.139,13.889 32.73,14.405 32.356,14.945C32.064,15.367 31.795,15.802 31.549,16.25C31.5,16.34 31.471,16.439 31.463,16.54C31.455,16.641 31.469,16.743 31.503,16.839C31.586,17.063 31.772,17.231 31.933,17.405L33.815,19.448C33.975,19.621 34.133,19.779 34.378,19.831C34.723,19.902 35.059,19.711 35.365,19.583C35.737,19.429 36.101,19.261 36.458,19.079C36.53,19.043 36.601,19.005 36.67,18.969C37.258,18.658 37.826,18.313 38.372,17.936C38.903,17.569 39.411,17.172 39.893,16.747ZM36.399,15.272C36.177,15.032 36.035,14.733 35.989,14.414C35.943,14.096 35.997,13.771 36.142,13.481C36.288,13.192 36.519,12.951 36.807,12.788C37.095,12.625 37.426,12.549 37.76,12.568C38.093,12.586 38.412,12.7 38.678,12.895C38.944,13.089 39.145,13.355 39.254,13.659C39.363,13.963 39.376,14.291 39.292,14.603C39.208,14.914 39.03,15.194 38.78,15.408C38.615,15.55 38.422,15.66 38.212,15.73C38.003,15.8 37.781,15.829 37.56,15.817C37.338,15.804 37.122,15.75 36.922,15.656C36.723,15.563 36.545,15.432 36.398,15.272L36.399,15.272Z" style="fill:rgb(0,218,99);fill-rule:nonzero;"/>
        </g>
        <g transform="matrix(1,0,0,1,66.0687,-0.424902)">
            <path d="M14.864,31.879C11.139,35.187 1.933,42.919 2.351,47.972C2.398,48.429 2.532,48.872 2.746,49.282C-0.565,44.032 10.781,34.615 14.864,31.879Z" style="fill:rgb(0,30,30);fill-rule:nonzero;"/>
        </g>
        <g transform="matrix(1,0,0,1,66.0687,-0.424902)">
            <path d="M37.753,15.514C38.497,15.514 39.1,14.933 39.1,14.215C39.1,13.498 38.497,12.916 37.753,12.916C37.009,12.916 36.406,13.498 36.406,14.215C36.406,14.933 37.009,15.514 37.753,15.514Z" style="fill:rgb(3,33,3);fill-rule:nonzero;"/>
        </g>
    </g>
    <defs>
        <linearGradient id="_Linear1" x1="0" y1="0" x2="1" y2="0" gradientUnits="userSpaceOnUse" gradientTransform="matrix(29.3333,0,0,29.3333,1.14826,35.5985)"><stop offset="0" style="stop-color:rgb(255,173,0);stop-opacity:1"/><stop offset="0.23" style="stop-color:rgb(255,153,15);stop-opacity:1"/><stop offset="0.7" style="stop-color:rgb(255,103,52);stop-opacity:1"/><stop offset="1" style="stop-color:rgb(255,68,78);stop-opacity:1"/></linearGradient>
        <linearGradient id="_Linear2" x1="0" y1="0" x2="1" y2="0" gradientUnits="userSpaceOnUse" gradientTransform="matrix(10.9146,-10.0226,10.0226,10.9146,17.4979,30.9401)"><stop offset="0" style="stop-color:rgb(255,255,208);stop-opacity:1"/><stop offset="0.26" style="stop-color:rgb(255,245,187);stop-opacity:1"/><stop offset="0.79" style="stop-color:rgb(255,219,132);stop-opacity:1"/><stop offset="1" style="stop-color:rgb(255,208,109);stop-opacity:1"/></linearGradient>
        <linearGradient id="_Linear3" x1="0" y1="0" x2="1" y2="0" gradientUnits="userSpaceOnUse" gradientTransform="matrix(8.8517,-8.0764,8.0764,8.8517,19.469,29.1436)"><stop offset="0" style="stop-color:rgb(255,208,109);stop-opacity:1"/><stop offset="0.2" style="stop-color:rgb(255,204,105);stop-opacity:1"/><stop offset="0.39" style="stop-color:rgb(255,194,94);stop-opacity:1"/><stop offset="0.58" style="stop-color:rgb(255,176,75);stop-opacity:1"/><stop offset="0.76" style="stop-color:rgb(255,150,48);stop-opacity:1"/><stop offset="0.94" style="stop-color:rgb(255,118,14);stop-opacity:1"/><stop offset="1" style="stop-color:rgb(255,105,0);stop-opacity:1"/></linearGradient>
        <linearGradient id="_Linear4" x1="0" y1="0" x2="1" y2="0" gradientUnits="userSpaceOnUse" gradientTransform="matrix(5.3237,-5.0722,5.0722,5.3237,22.325,26.8649)"><stop offset="0" style="stop-color:rgb(255,173,0);stop-opacity:1"/><stop offset="0.23" style="stop-color:rgb(255,153,15);stop-opacity:1"/><stop offset="0.7" style="stop-color:rgb(255,103,52);stop-opacity:1"/><stop offset="1" style="stop-color:rgb(255,68,78);stop-opacity:1"/></linearGradient>
    </defs>
</svg>
