<svg viewBox="0 0 179 58" fill="none" xmlns="http://www.w3.org/2000/svg">
<path d="M42.7625 41.2694C50.6349 33.6767 50.6349 21.3663 42.7625 13.7735C34.8902 6.18073 22.1265 6.18073 14.2542 13.7735C6.38182 21.3663 6.38181 33.6767 14.2542 41.2694C22.1265 48.8622 34.8902 48.8622 42.7625 41.2694Z" fill="#29296E"/>
<path d="M28.5043 47.3491C23.2757 47.3559 18.239 45.4501 14.4101 42.0159C10.5812 38.5819 8.24502 33.8751 7.87277 28.845C7.50051 23.8149 9.11989 18.8358 12.4043 14.912C15.6887 10.9882 20.3936 8.41169 25.5702 7.70215C30.7467 6.99262 36.0097 8.20286 40.2975 11.0888C44.5852 13.9747 47.5788 18.3215 48.6742 23.2524C49.7697 28.1834 48.8856 33.3316 46.2003 37.6586C43.515 41.9856 39.2282 45.1694 34.2047 46.5678C32.352 47.0849 30.433 47.3479 28.5043 47.3491ZM28.5403 8.46199C25.0025 8.45761 21.5283 9.36849 18.4796 11.0997C15.431 12.8309 12.9196 15.319 11.2071 18.3048C5.9388 27.5062 9.41326 39.1262 18.9545 44.2074C23.5438 46.6493 28.9504 47.2339 33.9863 45.8328C39.0222 44.4316 43.2753 41.1594 45.8109 36.7352C51.0793 27.5338 47.6038 15.9138 38.0636 10.8326C35.1488 9.27657 31.8717 8.46084 28.5403 8.46199Z" fill="black"/>
<path d="M45.7082 17.3723C45.7082 17.3723 42.83 20.995 43.1 23.9508C43.37 26.9066 40.9672 28.6542 40.9672 28.6542C40.9672 28.6542 37.8444 30.2884 38.1208 35.6822C38.3971 41.0759 34.2704 41.5253 34.2704 41.5253C34.2704 41.5253 32.0974 41.9911 32.7084 36.9088C33.3194 31.8265 27.6762 35.4176 27.6762 35.4176C27.6762 35.4176 22.1452 38.4204 26.6617 28.7676C26.6617 28.7676 28.5932 25.2 31.7288 23.2471C34.8644 21.2943 31.5732 20.1902 31.5732 20.1902C31.5732 20.1902 29.0041 20.1739 28.1781 17.8952C27.3521 15.6166 24.1106 15.8913 24.1106 15.8913C24.1106 15.8913 20.5419 16.1538 19.3972 12.5699L18.8359 10.4628C18.8359 10.4628 30.0874 3.84031 41.7562 12.8599C41.7562 12.8599 44.7372 15.6727 45.7082 17.3723Z" fill="#37F089"/>
<path d="M29.7273 46.9301C29.7273 46.9301 30.3786 44.6974 27.261 43.0908C24.1434 41.4842 21.8698 42.8161 20.0018 39.7111C18.1338 36.6062 17.5376 36.1824 19.233 31.9488C20.9284 27.7153 16.9033 25.7339 16.9033 25.7339C16.9033 25.7339 14.6466 24.5848 12.9745 26.6163C11.3024 28.6478 8.3447 27.2649 8.3447 27.2649C8.3447 27.2649 7.99101 40.0319 20.9263 45.539C20.9305 45.539 25.267 47.2968 29.7273 46.9301Z" fill="#37F089"/>
<path d="M15.0897 13.0078C15.2814 14.067 15.741 15.5878 17.0308 16.6622C18.9274 18.2443 21.0263 17.5334 22.9674 19.0655C23.7573 19.6895 24.7305 20.8498 25.1425 23.1979C25.1605 23.4267 25.1774 23.7474 25.1689 24.1314C25.1738 24.4782 25.1444 24.8247 25.081 25.166C24.9699 25.643 24.5791 26.5428 23.9162 26.7093C22.8202 26.9851 21.2698 25.2069 21.2095 25.162C20.4829 24.1793 19.5913 23.3204 18.5716 22.6208C17.429 21.8405 16.0703 20.9131 14.6111 21.2144C13.8698 21.3676 13.7416 21.7057 12.8595 22.1204C11.647 22.6913 10.318 22.7945 8.99219 22.631C8.99219 22.627 10.2693 17.0708 15.0897 13.0078Z" fill="#37F089"/>
<g opacity="0.5">
<path d="M48.1437 31.9351C48.3471 30.0507 48.8109 23.4935 44.3209 17.6003C42.4638 15.2035 40.0743 13.2377 37.3275 11.847C32.0856 9.18432 27.1212 9.41821 24.9863 9.65414C20.886 10.1182 17.0075 11.699 13.8047 14.2114C14.9378 13.0685 19.755 8.46529 27.4082 8.06185C30.6115 7.89333 34.2702 8.50103 38.2625 10.507C38.2625 10.507 50.1632 15.5464 48.1437 31.9351Z" fill="white"/>
</g>
<path d="M28.5043 47.3491C23.2757 47.3559 18.239 45.4501 14.4101 42.0159C10.5812 38.5819 8.24502 33.8751 7.87277 28.845C7.50051 23.8149 9.11989 18.8358 12.4043 14.912C15.6887 10.9882 20.3936 8.41169 25.5702 7.70215C30.7467 6.99262 36.0097 8.20286 40.2975 11.0888C44.5852 13.9747 47.5788 18.3215 48.6742 23.2524C49.7697 28.1834 48.8856 33.3316 46.2003 37.6586C43.515 41.9856 39.2282 45.1694 34.2047 46.5678C32.352 47.0849 30.433 47.3479 28.5043 47.3491ZM28.5403 8.46199C25.0025 8.45761 21.5283 9.36849 18.4796 11.0997C15.431 12.8309 12.9196 15.319 11.2071 18.3048C5.9388 27.5062 9.41326 39.1262 18.9545 44.2074C23.5438 46.6493 28.9504 47.2339 33.9863 45.8328C39.0222 44.4316 43.2753 41.1594 45.8109 36.7352C51.0793 27.5338 47.6038 15.9138 38.0636 10.8326C35.1488 9.27657 31.8717 8.46084 28.5403 8.46199Z" fill="#000B1E"/>
<g opacity="0.25">
<path d="M15.0889 13.0078C10.6476 21.8599 13.9547 32.5617 22.4804 37.5306C30.6789 42.3095 41.5482 40.5303 47.7823 33.2409C47.166 35.1815 45.2048 40.4251 39.8115 43.863C32.6169 48.4458 22.4879 47.7973 15.6967 42.3504C10.5523 38.2241 7.55009 31.524 8.55081 24.7187C9.5007 18.2229 13.7122 14.212 15.0889 13.0078Z" fill="black"/>
</g>
<path d="M55.9688 38.503L58.7009 36.5216C59.7598 37.9372 61.1365 39.2394 63.4662 39.2394C65.1712 39.2394 66.2291 38.4754 66.2291 37.1732C66.2291 35.9557 65.2887 35.5308 63.7606 34.8516L61.6734 33.9457C58.9995 32.7844 56.9716 31.2554 56.9716 28.5662C56.9716 25.3387 59.7641 23.2715 63.408 23.2715C66.4938 23.2715 68.6679 24.7729 69.8137 26.8105L67.1016 28.8236C66.1613 27.4652 64.9837 26.6726 63.3953 26.6726C62.1023 26.6726 60.9851 27.2384 60.9851 28.4845C60.9851 29.56 61.8375 30.0165 63.2481 30.6355L65.4518 31.57C68.508 32.8722 70.2425 34.3726 70.2425 37.0343C70.2425 40.5161 67.3039 42.6395 63.4535 42.6395C60.1082 42.6364 57.4036 40.9951 55.9688 38.503Z" fill="white"/>
<path d="M82.6808 39.0973V42.2972C81.788 42.52 80.8698 42.6339 79.9476 42.6363C76.362 42.6363 74.1286 40.9664 74.1286 37.3712V31.5106H71.8359V28.2831H74.1286V24.7441H78.0955V28.2831H82.2096V31.5106H78.0955V37.0311C78.0955 38.6448 78.9776 39.2106 80.799 39.2106C81.2692 39.2106 81.9162 39.1545 82.6808 39.0973Z" fill="white"/>
<path d="M97.7474 33.975V42.2991H94.1035V40.9396C93.0753 41.9875 91.5472 42.6381 89.6665 42.6381C86.4896 42.6381 84.6406 40.8263 84.6406 38.4506C84.6406 35.8972 86.7861 34.3733 90.1367 34.3733H93.7806V33.7513C93.7806 32.2193 92.8698 31.2878 91.077 31.2878C89.5193 31.2878 88.4296 31.9956 87.2277 33.2131L85.1701 30.8639C86.875 28.9111 88.9612 27.9766 91.5175 27.9766C95.2207 27.9735 97.7474 29.9835 97.7474 33.975ZM93.7806 37.0615V36.894H90.6651C89.3721 36.894 88.6382 37.3761 88.6382 38.3096C88.6382 39.2728 89.4854 39.8417 90.7244 39.8417C92.3997 39.8355 93.7806 38.7029 93.7806 37.0615Z" fill="white"/>
<path d="M110.51 28.2829V31.6533H109.452C107.16 31.6533 105.544 32.786 105.544 35.3057V42.2989H101.578V28.2829H105.222V29.9528C105.697 29.3711 106.305 28.9028 106.998 28.584C107.691 28.2652 108.451 28.1045 109.219 28.1143C109.656 28.1047 110.092 28.1615 110.51 28.2829Z" fill="white"/>
<path d="M122.783 42.2986L116.937 34.5444V42.3016H112.969V21.0625H116.937V34.2574L122.167 28.2845H126.87L121.407 34.4842L127.313 42.2986H122.783Z" fill="white"/>
<path d="M129.695 23.6152H136.983C141.068 23.6152 143.972 25.993 143.972 29.6412C143.972 33.2374 141.062 35.6999 136.983 35.6999H133.662V42.2969H129.695V23.6152ZM136.983 32.3632C138.834 32.3632 139.922 31.2591 139.922 29.6453C139.922 28.0888 138.834 26.9847 136.983 26.9847H133.662V32.3632H136.983Z" fill="white"/>
<path d="M158.794 33.975V42.2991H155.15V40.9396C154.122 41.9875 152.594 42.6381 150.713 42.6381C147.536 42.6381 145.688 40.8263 145.688 38.4506C145.688 35.8972 147.833 34.3733 151.184 34.3733H154.827V33.7513C154.827 32.2193 153.917 31.2878 152.124 31.2878C150.566 31.2878 149.476 31.9956 148.273 33.2131L146.217 30.8639C147.921 28.9111 150.008 27.9766 152.564 27.9766C156.263 27.9735 158.794 29.9835 158.794 33.975ZM154.827 37.0615V36.894H151.712C150.419 36.894 149.684 37.3761 149.684 38.3096C149.684 39.2728 150.531 39.8417 151.771 39.8417C153.442 39.8355 154.823 38.7029 154.823 37.0615H154.827Z" fill="white"/>
<path d="M177.159 21.0625V42.2965H173.515V40.5704C172.515 41.8982 170.84 42.6366 168.842 42.6366C164.728 42.6366 161.789 39.5225 161.789 35.3043C161.789 31.0861 164.728 27.972 168.842 27.972C170.664 27.972 172.163 28.5664 173.191 29.6419V21.0625H177.159ZM173.25 35.3053C173.25 32.6447 171.399 31.4242 169.577 31.4242C167.519 31.4242 165.815 32.8959 165.815 35.2737C165.815 37.6514 167.491 39.1548 169.577 39.1548C171.397 39.1558 173.25 37.9946 173.25 35.3053Z" fill="white"/>
<path d="M124.42 53.6789C124.42 55.0914 123.436 56.1301 122.059 56.1301C121.389 56.1301 120.828 55.8738 120.493 55.4376V56.0157H119.273V48.9102H120.602V51.7822C120.947 51.4227 121.45 51.2235 122.059 51.2235C123.436 51.2235 124.42 52.2663 124.42 53.6789ZM123.072 53.6697C123.072 52.873 122.501 52.3797 121.813 52.3797C121.192 52.3797 120.582 52.7883 120.582 53.6789C120.582 54.5695 121.199 54.9719 121.813 54.9719C122.511 54.9719 123.072 54.4612 123.072 53.6697Z" fill="white"/>
<path d="M130.09 51.3262L127.76 56.4268C127.318 57.393 126.737 57.8394 125.821 57.8394C125.532 57.8353 125.245 57.7968 124.966 57.725V56.6536C125.192 56.673 125.379 56.6914 125.537 56.6914C125.96 56.6914 126.304 56.5892 126.55 56.0571L126.697 55.7343L124.828 51.3262H126.235L127.426 54.4076L128.697 51.3262H130.09Z" fill="white"/>
<path d="M133.258 54.7502L134.173 54.0863C134.528 54.5602 134.989 54.9964 135.761 54.9964C136.332 54.9964 136.687 54.74 136.687 54.3039C136.687 53.8953 136.369 53.7544 135.86 53.5266L135.162 53.2202C134.266 52.8321 133.587 52.3194 133.587 51.4196C133.587 50.339 134.522 49.6465 135.742 49.6465C136.776 49.6465 137.503 50.149 137.888 50.8313L136.982 51.5043C136.665 51.0498 136.274 50.7843 135.742 50.7843C135.309 50.7843 134.935 50.9732 134.935 51.391C134.935 51.7515 135.22 51.9016 135.692 52.1059L136.434 52.4195C137.458 52.8556 138.038 53.3581 138.038 54.2487C138.038 55.4151 137.054 56.126 135.764 56.126C135.257 56.1372 134.755 56.0152 134.314 55.7729C133.872 55.5305 133.507 55.1771 133.258 54.7502Z" fill="white"/>
<path d="M142.206 54.9491V56.0195C141.907 56.0944 141.599 56.1328 141.29 56.1339C140.09 56.1339 139.341 55.5742 139.341 54.37V52.408H138.57V51.3274H139.337V50.1426H140.666V51.3274H142.043V52.408H140.666V54.2566C140.666 54.7969 140.961 54.9869 141.571 54.9869C141.732 54.9869 141.949 54.9716 142.206 54.9491Z" fill="white"/>
<path d="M147.252 53.234V56.0202H146.032V55.5657C145.688 55.916 145.177 56.1346 144.55 56.1346C143.491 56.1346 142.867 55.5279 142.867 54.7313C142.867 53.8784 143.585 53.3667 144.707 53.3667H145.928V53.1625C145.928 52.6518 145.623 52.3382 145.022 52.3382C144.5 52.3382 144.136 52.5752 143.733 52.9827L143.044 52.1963C143.297 51.8878 143.62 51.6399 143.989 51.4721C144.358 51.3043 144.762 51.2211 145.169 51.229C146.405 51.2219 147.252 51.895 147.252 53.234ZM145.924 54.2666V54.2104H144.881C144.448 54.2104 144.203 54.3707 144.203 54.6843C144.203 54.9978 144.487 55.195 144.9 55.195C145.461 55.1939 145.923 54.815 145.923 54.2645L145.924 54.2666Z" fill="white"/>
<path d="M151.52 51.3271V52.4506H151.168C150.401 52.4506 149.859 52.8305 149.859 53.6762V56.0171H148.531V51.3271H149.751V51.8868C149.911 51.6925 150.114 51.5361 150.346 51.4299C150.578 51.3236 150.833 51.2703 151.09 51.274C151.235 51.2701 151.38 51.288 151.52 51.3271Z" fill="white"/>
<path d="M155.639 56.0198L153.681 53.4225V56.0198H152.352V48.9102H153.681V53.3275L155.432 51.3277H157.006L155.176 53.4041L157.154 56.0198H155.639Z" fill="white"/>
<path d="M157.945 49.7617H160.071C162.157 49.7617 163.614 50.9945 163.614 52.8718C163.614 54.7204 162.157 56.0186 160.071 56.0186H157.945V49.7617ZM160.063 54.8624C161.372 54.8624 162.248 54.0759 162.248 52.8718C162.248 51.639 161.372 50.9189 160.063 50.9189H159.276V54.8624H160.063Z" fill="white"/>
<path d="M169.128 54.1048H165.713C165.87 54.7013 166.372 55.0332 167.081 55.0332C167.577 55.0314 168.057 54.8639 168.439 54.5593L168.99 55.4316C168.45 55.8847 167.758 56.1339 167.042 56.1333C165.497 56.1333 164.375 55.0618 164.375 53.682C164.371 53.3585 164.434 53.0374 164.561 52.7378C164.687 52.4382 164.875 52.1661 165.113 51.9376C165.35 51.7091 165.633 51.5288 165.944 51.4074C166.255 51.286 166.588 51.2259 166.923 51.2307C168.291 51.2307 169.217 52.198 169.217 53.4113C169.213 53.6449 169.183 53.8774 169.128 54.1048ZM165.713 53.204H167.927C167.917 52.6065 167.436 52.2562 166.874 52.2562C166.313 52.2562 165.861 52.6157 165.713 53.204Z" fill="white"/>
<path d="M171.801 50.6713V51.326H172.879V52.4066H171.806V56.0181H170.478V52.4066H169.789V51.326H170.478V50.558C170.478 49.3538 171.226 48.7951 172.358 48.7951C172.605 48.7922 172.85 48.8267 173.086 48.8972V49.9686C172.955 49.9501 172.824 49.9406 172.692 49.94C172.097 49.9421 171.801 50.131 171.801 50.6713Z" fill="white"/>
<path d="M173.571 49.6201C173.565 49.4574 173.609 49.2966 173.698 49.1584C173.788 49.0202 173.918 48.9109 174.072 48.8445C174.226 48.7781 174.397 48.7576 174.564 48.7857C174.73 48.8138 174.884 48.8892 175.005 49.0022C175.127 49.1152 175.211 49.2607 175.246 49.4199C175.281 49.5792 175.266 49.7449 175.203 49.896C175.14 50.047 175.032 50.1764 174.892 50.2676C174.752 50.3587 174.587 50.4075 174.418 50.4076C174.309 50.4106 174.199 50.3925 174.097 50.3544C173.995 50.3162 173.902 50.2588 173.823 50.1855C173.744 50.1121 173.681 50.0244 173.638 49.9273C173.595 49.8302 173.572 49.7258 173.571 49.6201ZM173.757 51.3268H175.086V56.0189H173.757V51.3268Z" fill="white"/>
<path d="M176.211 55.2518C176.209 55.1347 176.232 55.0185 176.278 54.9102C176.324 54.8018 176.393 54.7035 176.479 54.6211C176.565 54.5388 176.668 54.474 176.781 54.4308C176.893 54.3875 177.014 54.3666 177.136 54.3694C177.316 54.3712 177.492 54.4245 177.641 54.5226C177.79 54.6206 177.906 54.7591 177.974 54.9205C178.042 55.0819 178.059 55.259 178.022 55.4296C177.986 55.6001 177.898 55.7565 177.77 55.879C177.641 56.0015 177.478 56.0846 177.301 56.1179C177.124 56.1513 176.94 56.1333 176.774 56.0662C176.607 55.9991 176.465 55.886 176.365 55.7411C176.264 55.5962 176.211 55.426 176.211 55.2518Z" fill="white"/>
<path d="M5.36198 51.3459C3.64434 51.3459 2.35134 50.8261 1.52111 49.7996C-0.936745 46.4097 3.01955 41.6757 5.13748 39.1315L5.16078 39.105C6.42306 37.6669 7.75312 36.2758 9.23355 34.8459C11.9869 32.1904 15.186 29.4756 19.3075 26.3094C19.4017 26.2348 21.2645 24.6906 23.0658 23.1963C25.6962 21.0147 26.9416 19.9821 27.003 19.9361L27.3461 19.6777L27.5875 20.027C27.8311 20.3784 28.4008 20.836 28.9525 21.2792C29.7319 21.9043 30.541 22.5518 30.8491 23.1953L30.9805 23.4649L30.7443 23.658C29.5879 24.6007 27.5314 26.1695 25.1519 27.9763C20.1081 31.8115 13.8316 36.5873 11.7031 38.7843C10.6272 39.8924 9.66455 40.9291 8.7602 41.9689C7.86008 43.0352 6.92607 44.1913 6.19644 45.371C5.78874 46.0461 5.45517 46.6273 5.30903 47.188L5.48694 47.2023H5.51659C7.54556 47.2023 9.70479 46.4873 11.6099 45.8521C13.3889 45.1912 15.1998 44.4599 16.9788 43.6847L17.1821 43.5959L17.3685 43.7154C18.1832 44.238 19.0362 44.7029 19.9206 45.1065L20.609 45.42L19.9535 45.7938C13.5033 49.4789 8.59606 51.3459 5.36198 51.3459Z" fill="#001E1E"/>
<path d="M11.74 46.2216C9.68881 46.9018 7.55288 47.6035 5.46989 47.5933C5.25688 47.5889 5.04567 47.5545 4.84298 47.4912C4.84298 47.5228 4.84298 47.5443 4.84298 47.5433C4.83041 47.5174 4.8128 47.4942 4.7911 47.4748C4.78295 47.465 4.77331 47.4564 4.7625 47.4493C4.7498 47.4421 4.73391 47.437 4.72226 47.4289C4.72226 47.4289 4.74344 47.4289 4.7625 47.4493C4.78987 47.4655 4.81855 47.4795 4.84828 47.4912C4.84828 47.4779 4.84828 47.4677 4.84828 47.4503C4.94782 46.6904 5.38623 45.9418 5.85112 45.1706C6.57333 44.0012 7.49675 42.847 8.44876 41.7123C9.40183 40.6215 10.393 39.5573 11.4054 38.5134C14.5823 35.2359 26.9129 26.2674 30.4858 23.3555C29.9923 22.3392 27.8734 21.135 27.2539 20.2383C27.1342 20.3282 19.6801 26.5196 19.5615 26.6095C16.067 29.2947 12.6783 32.0717 9.52149 35.1164C8.1226 36.4676 6.76818 37.8741 5.47731 39.3448C3.49916 41.7133 -0.44231 46.4126 1.83764 49.5574C4.45223 52.7859 11.8004 49.9955 19.7458 45.4587C18.8438 45.0478 17.9739 44.5743 17.1429 44.042C15.3617 44.8183 13.5607 45.5448 11.74 46.2216Z" fill="url(#paint0_linear_1859_4031)"/>
<path d="M18.5258 33.6556C18.4633 33.5688 17.0168 31.5107 17.6479 29.5998L17.7125 29.4006C17.8204 29.0314 17.9621 28.6721 18.1361 28.3272C17.0565 28.3108 16.0179 27.9258 15.2049 27.2405C15.2049 27.2405 14.6924 26.6848 14.8629 26.4234C15.045 26.1466 15.9091 26.1639 15.9102 26.1639C15.953 26.1697 15.9961 26.1728 16.0394 26.1731C16.4481 26.1731 17.8957 25.88 19.3656 22.1194C20.2593 19.8325 22.5308 18.6774 24.3861 18.5446C24.5291 18.5344 24.6699 18.5293 24.8097 18.5293C26.0678 18.5293 27.9146 18.9378 29.5624 20.8784L29.6005 20.9234C33.2708 25.068 29.1631 28.9921 28.6834 29.4292C25.264 32.5188 20.9741 32.815 20.7931 32.8263L20.486 31.7692C19.8601 32.575 19.7585 33.3094 19.7521 33.3584L19.5403 35.0569L18.5258 33.6556Z" fill="#001E1E"/>
<path d="M20.7496 32.1809C20.7496 32.1809 22.3794 31.3557 21.9621 29.7981C19.3306 31.0534 19.0817 33.2861 19.0817 33.2861C19.0817 33.2861 17.7538 31.4272 18.2918 29.7961C18.5766 28.934 18.7302 28.215 19.9257 27.2876C17.4319 28.4029 15.6719 26.7769 15.6719 26.7769C15.6719 26.7769 17.9349 27.6277 19.9967 22.3534C20.8121 20.2668 22.8665 19.3098 24.4359 19.1995C27.2474 18.9952 28.8645 21.0992 29.0879 21.3525C32.3707 25.056 28.658 28.5684 28.2217 28.9626C24.941 31.9225 20.7496 32.1809 20.7496 32.1809Z" fill="url(#paint1_linear_1859_4031)"/>
<path d="M21.6417 28.9574C21.6417 28.9574 23.8359 28.3446 24.0921 27.5919C23.5171 27.9616 22.5259 27.886 21.6809 28.3231C20.6886 28.8338 20.1073 30.1412 20.1073 30.1412C20.1073 30.1412 19.4613 28.6418 20.319 27.6082C20.947 26.8555 21.9266 26.5409 22.4243 25.5655C20.2068 27.3968 18.9297 26.6052 18.9297 26.6052C18.9297 26.6052 20.3498 26.3652 20.8358 23.8762C20.958 23.2052 21.2313 22.5682 21.6364 22.0101C22.4137 20.9704 23.5563 20.3147 24.7709 20.2095C25.8839 20.1073 26.963 20.4934 27.8102 21.2809C28.022 21.476 28.203 21.6823 28.3767 21.8774C30.9182 24.7484 28.0431 27.4703 27.7053 27.7767C25.1712 30.0758 21.6417 28.9574 21.6417 28.9574Z" fill="url(#paint2_linear_1859_4031)"/>
<path d="M22.5917 22.5466C21.9097 23.568 22.1099 25.1266 21.1875 25.9539C21.879 25.5596 22.3386 25.1776 22.5737 24.7282C22.9528 24.0041 23.4897 23.6599 23.8233 23.7498C23.3658 24.5546 23.3234 25.291 22.9761 25.8762C22.4466 26.7771 21.5994 26.5687 21.3707 27.9812C22.0908 27.2244 22.8257 27.4941 23.8402 27.1846C24.7107 26.919 25.5801 26.1632 25.723 25.4677C25.8491 25.817 25.8713 26.3287 25.723 26.6698C25.3524 27.5135 24.5338 28.1304 24.0901 28.4664C25.4011 28.2764 26.3065 27.7862 27.3634 26.82C28.2423 26.0172 29.817 23.807 27.3242 21.7203C25.7548 20.4079 23.6549 20.9604 22.5917 22.5466Z" fill="url(#paint3_linear_1859_4031)"/>
<path d="M23.3899 21.4847C23.235 21.4848 23.0827 21.4464 22.9475 21.3735C22.8123 21.3005 22.6988 21.1953 22.6179 21.0679C22.5369 20.9405 22.4912 20.7952 22.4851 20.6459C22.479 20.4966 22.5127 20.3483 22.583 20.2152C22.8329 19.7423 23.2681 18.9273 23.9183 17.7323C25.1033 15.5568 28.0049 15.2014 28.1277 15.1881L29.0395 15.0859L27.8016 21.401L23.3899 21.4847Z" fill="#001E1E"/>
<path d="M28.2039 15.832C28.2039 15.832 25.5459 16.1384 24.5123 18.0341C23.8377 19.272 23.4025 20.0901 23.1812 20.5098C23.1631 20.5444 23.1546 20.5828 23.1565 20.6214C23.1584 20.6601 23.1705 20.6976 23.1918 20.7304C23.2131 20.7631 23.2428 20.79 23.2781 20.8085C23.3133 20.8269 23.3529 20.8363 23.393 20.8357L27.2349 20.7621L28.2039 15.832Z" fill="#00DA63"/>
<path d="M29.3664 27.9775C29.237 27.9773 29.1091 27.9505 28.9913 27.8987C28.8736 27.8469 28.7687 27.7714 28.6837 27.6772C28.5987 27.5831 28.5356 27.4725 28.4987 27.3528C28.4617 27.2332 28.4518 27.1073 28.4694 26.9837L29.0731 22.79L35.7244 22.3457L35.5126 23.2067C35.484 23.3221 34.7766 26.0594 32.3971 26.9377C30.9961 27.4545 30.096 27.7773 29.683 27.9233C29.5818 27.9599 29.4745 27.9783 29.3664 27.9775Z" fill="#001E1E"/>
<path d="M34.8534 23.0547C34.8534 23.0547 34.2276 25.5652 32.1509 26.3312C30.7976 26.8317 29.9028 27.1483 29.4453 27.3148C29.4076 27.328 29.3669 27.3316 29.3273 27.3252C29.2877 27.3188 29.2505 27.3026 29.2193 27.2783C29.1881 27.2539 29.1639 27.2222 29.1491 27.1862C29.1344 27.1502 29.1295 27.1111 29.135 27.0727L29.6645 23.4019L34.8534 23.0547Z" fill="#00DA63"/>
<path d="M26.3276 24.7827C26.1937 24.7826 26.0615 24.7539 25.9405 24.6987C25.8195 24.6434 25.7127 24.563 25.6277 24.4632C25.5428 24.3634 25.4818 24.2467 25.4492 24.1215C25.4166 23.9962 25.4131 23.8656 25.4391 23.7389C25.5884 23.0137 26.0745 20.7249 27.3833 15.1646L27.3918 15.1309C29.0692 9.41131 33.2564 8.79339 34.9782 8.79339C35.2835 8.78961 35.5886 8.81114 35.89 8.85774L36.1177 8.89757L37.4361 10.3275L36.8007 10.7421C36.6948 10.8095 36.5889 10.879 36.4904 10.9464C35.9778 11.2997 35.4874 11.682 35.0217 12.0914C34.5384 12.5164 34.0815 12.9686 33.6535 13.4457C33.2158 13.9341 32.8098 14.4482 32.4378 14.9849C32.1473 15.4039 31.8791 15.8368 31.634 16.282C31.5901 16.3617 31.5638 16.4493 31.5567 16.5393C31.5496 16.6293 31.5619 16.7197 31.5927 16.8049C31.6496 16.9394 31.7326 17.0622 31.8374 17.1665L32.0068 17.3452L33.8875 19.3879C34.0146 19.5248 34.1724 19.6943 34.4064 19.7444C34.4516 19.7543 34.4978 19.7591 34.5441 19.7587C34.7559 19.7587 34.9888 19.6565 35.19 19.5687L35.3404 19.5033C35.7026 19.3532 36.0679 19.1837 36.429 19.0008L36.6408 18.8905C37.2268 18.5821 37.7927 18.2393 38.3352 17.8641C38.8624 17.4983 39.367 17.103 39.8463 16.6803C40.2923 16.2876 40.7138 15.8699 41.1086 15.4292L41.6116 14.8664L42.9279 16.2963L42.9427 16.5189C42.9427 16.5812 43.2604 22.7267 35.4823 23.9197H35.4474C29.5807 24.5151 27.1684 24.7133 26.4038 24.7705H26.3329L26.3276 24.7827Z" fill="#001E1E"/>
<path d="M35.3694 23.285C29.5451 23.8764 27.1211 24.0756 26.3438 24.1338C26.3081 24.1363 26.2722 24.1309 26.239 24.1178C26.2057 24.1048 26.1761 24.0845 26.1523 24.0586C26.1285 24.0327 26.1113 24.0019 26.1019 23.9685C26.0925 23.9351 26.0912 23.9001 26.0982 23.8662C26.2496 23.1288 26.7399 20.8297 28.0382 15.3092C30.0407 8.48147 35.7686 9.4967 35.7686 9.4967L36.4209 10.2055C36.3151 10.276 36.2039 10.3495 36.0958 10.4231C35.5615 10.7916 35.0501 11.1903 34.5646 11.617C34.0615 12.0595 33.586 12.5301 33.1403 13.0265C32.6825 13.535 32.2581 14.0706 31.8695 14.63C31.5664 15.0675 31.2865 15.5196 31.0308 15.9844C30.9438 16.1435 30.8917 16.3182 30.8779 16.4977C30.864 16.6771 30.8887 16.8574 30.9503 17.0272C31.0346 17.2414 31.1624 17.4373 31.3263 17.6032C31.3559 17.6359 31.3877 17.6686 31.4184 17.7053C31.4491 17.7421 31.4703 17.7595 31.4946 17.7871L33.3764 19.8298C33.5374 20.0044 33.8074 20.2976 34.2564 20.3905C34.7383 20.4926 35.1576 20.3047 35.4636 20.1699C35.5102 20.1484 35.5558 20.128 35.6013 20.1096C35.9815 19.9513 36.3627 19.7746 36.7344 19.5867L36.9557 19.4723C38.1611 18.8353 39.2828 18.061 40.2968 17.1661C40.7625 16.756 41.2027 16.3198 41.6152 15.8598L42.2675 16.5676C42.2675 16.5676 42.635 22.1717 35.3694 23.285Z" fill="#06BC54"/>
<path d="M34.5346 20.4964C34.4349 20.4964 34.3356 20.4865 34.238 20.4668C33.7615 20.3647 33.4809 20.0583 33.3125 19.8795L31.4318 17.8368L31.3555 17.7561C31.1447 17.558 30.9794 17.3193 30.8705 17.0555C30.8048 16.8749 30.7784 16.6832 30.793 16.4923C30.8075 16.3015 30.8628 16.1156 30.9553 15.9463C31.2121 15.4792 31.4931 15.0248 31.7971 14.5848C32.5695 13.4741 33.4779 12.4573 34.5028 11.5565C34.9905 11.1274 35.5043 10.7266 36.0415 10.3564C36.5552 10.0036 37.0914 9.68223 37.6469 9.39426C38.1699 9.12316 38.7124 8.88866 39.2702 8.69259C39.791 8.50933 40.3275 8.37057 40.8735 8.27792C41.267 8.21207 41.6655 8.1779 42.0649 8.17578C42.1835 8.17578 42.301 8.17578 42.4196 8.186C42.6668 8.19931 42.9127 8.229 43.1556 8.27485C43.2805 8.29834 43.3991 8.32592 43.5167 8.35861C43.7644 8.41618 43.9837 8.55478 44.1372 8.75081C44.1927 8.8202 44.239 8.89603 44.2749 8.97653C44.3346 9.12177 44.3703 9.27513 44.3808 9.43103L44.3861 9.47495C44.4056 9.65 44.4155 9.82591 44.4158 10.002C44.4134 10.4942 44.3487 10.9844 44.223 11.4615C44.0912 11.9726 43.9104 12.4708 43.683 12.9496C43.4391 13.4629 43.1559 13.9579 42.8358 14.4306C42.4948 14.9327 42.1202 15.4127 41.7143 15.8676C41.288 16.3467 40.8318 16.8004 40.3483 17.226C39.8478 17.6688 39.3202 18.0822 38.7683 18.4639C38.201 18.8568 37.6093 19.216 36.9966 19.5394L36.7732 19.6548C36.4015 19.8438 36.0182 20.0205 35.6338 20.1808C35.5903 20.1982 35.5459 20.2186 35.5003 20.239C35.2409 20.3534 34.919 20.4964 34.5356 20.4964H34.5346ZM37.6585 13.2131C37.4264 13.213 37.2012 13.2897 37.0206 13.4304C36.84 13.5711 36.7149 13.7672 36.6662 13.9861C36.6174 14.205 36.648 14.4335 36.7528 14.6332C36.8576 14.833 37.0302 14.9921 37.242 15.084C37.4537 15.1758 37.6916 15.1948 37.9161 15.1378C38.1406 15.0809 38.3381 14.9514 38.4756 14.771C38.613 14.5905 38.6822 14.3701 38.6715 14.1464C38.6607 13.9228 38.5708 13.7094 38.4167 13.542C38.3218 13.4384 38.205 13.3555 38.0743 13.2988C37.9436 13.2421 37.8018 13.2129 37.6585 13.2131Z" fill="#001E1E"/>
<path d="M39.8932 16.747C40.3566 16.339 40.7937 15.9041 41.2021 15.4448C41.5894 15.0116 41.9463 14.554 42.2706 14.0751C42.5726 13.6325 42.8395 13.1685 43.0691 12.6871C43.2794 12.2458 43.4467 11.7866 43.5689 11.3154C43.6801 10.8882 43.7373 10.4496 43.7394 10.0091C43.7385 9.85626 43.7297 9.70354 43.7129 9.55154C43.7082 9.44523 43.6882 9.34006 43.6536 9.23901C43.6402 9.20924 43.6231 9.18113 43.6028 9.15526C43.5372 9.06868 43.4399 9.0095 43.3306 8.9898C43.2248 8.9612 43.1273 8.93873 43.0235 8.9183C42.8103 8.87829 42.5945 8.85202 42.3776 8.83966C41.9116 8.81693 41.4445 8.84503 40.985 8.92341C40.4779 9.00915 39.9797 9.13801 39.4961 9.30846C38.9697 9.49208 38.4576 9.71189 37.9638 9.96621C37.4338 10.2412 36.9224 10.5482 36.4326 10.8854C35.917 11.2402 35.4241 11.6246 34.9564 12.0365C34.4694 12.4631 34.0097 12.9178 33.5797 13.398C33.1385 13.8885 32.7296 14.4053 32.3555 14.9453C32.0639 15.3667 31.7946 15.802 31.5486 16.2496C31.5 16.3397 31.4709 16.4385 31.4631 16.5398C31.4553 16.6411 31.4689 16.7428 31.5031 16.8389C31.5857 17.0626 31.772 17.2311 31.933 17.4048L33.8148 19.4475C33.9747 19.6211 34.1325 19.7794 34.3782 19.8305C34.7234 19.902 35.0591 19.711 35.3651 19.5833C35.7365 19.4294 36.1007 19.2612 36.458 19.0788C36.53 19.043 36.6009 19.0052 36.6698 18.9685C37.258 18.6576 37.8263 18.3127 38.3715 17.9359C38.9028 17.5691 39.4109 17.1721 39.8932 16.747ZM36.3987 15.2722C36.1771 15.0316 36.0345 14.733 35.9888 14.4143C35.9432 14.0955 35.9965 13.7708 36.1422 13.4813C36.2879 13.1918 36.5193 12.9505 36.8071 12.7878C37.095 12.6252 37.4264 12.5485 37.7595 12.5675C38.0925 12.5865 38.4123 12.7003 38.6782 12.8946C38.9442 13.0888 39.1445 13.3548 39.2538 13.6588C39.3631 13.9629 39.3764 14.2913 39.2921 14.6027C39.2078 14.914 39.0297 15.1943 38.7803 15.408C38.6147 15.5502 38.4217 15.6595 38.2122 15.7296C38.0028 15.7998 37.781 15.8294 37.5597 15.8168C37.3384 15.8042 37.1218 15.7496 36.9224 15.6561C36.723 15.5627 36.5447 15.4322 36.3976 15.2722H36.3987Z" fill="#00DA63"/>
<path d="M14.8644 31.8789C11.139 35.1871 1.9334 42.9188 2.35063 47.9724C2.39832 48.4285 2.53219 48.8723 2.74562 49.2818C-0.564701 44.032 10.781 34.6151 14.8644 31.8789Z" fill="#001E1E"/>
<path d="M37.7533 15.5143C38.4972 15.5143 39.1003 14.9327 39.1003 14.2152C39.1003 13.4977 38.4972 12.916 37.7533 12.916C37.0093 12.916 36.4062 13.4977 36.4062 14.2152C36.4062 14.9327 37.0093 15.5143 37.7533 15.5143Z" fill="#032103"/>
<defs>
<linearGradient id="paint0_linear_1859_4031" x1="1.14826" y1="35.5985" x2="30.4816" y2="35.5985" gradientUnits="userSpaceOnUse">
<stop stop-color="#FFAD00"/>
<stop offset="0.23" stop-color="#FF990F"/>
<stop offset="0.7" stop-color="#FF6734"/>
<stop offset="1" stop-color="#FF444E"/>
</linearGradient>
<linearGradient id="paint1_linear_1859_4031" x1="17.4979" y1="30.9401" x2="28.4125" y2="20.9175" gradientUnits="userSpaceOnUse">
<stop stop-color="#FFFFD0"/>
<stop offset="0.26" stop-color="#FFF5BB"/>
<stop offset="0.79" stop-color="#FFDB84"/>
<stop offset="1" stop-color="#FFD06D"/>
</linearGradient>
<linearGradient id="paint2_linear_1859_4031" x1="19.469" y1="29.1436" x2="28.3207" y2="21.0672" gradientUnits="userSpaceOnUse">
<stop stop-color="#FFD06D"/>
<stop offset="0.2" stop-color="#FFCC69"/>
<stop offset="0.39" stop-color="#FFC25E"/>
<stop offset="0.58" stop-color="#FFB04B"/>
<stop offset="0.76" stop-color="#FF9630"/>
<stop offset="0.94" stop-color="#FF760E"/>
<stop offset="1" stop-color="#FF6900"/>
</linearGradient>
<linearGradient id="paint3_linear_1859_4031" x1="22.325" y1="26.8649" x2="27.6487" y2="21.7927" gradientUnits="userSpaceOnUse">
<stop stop-color="#FFAD00"/>
<stop offset="0.23" stop-color="#FF990F"/>
<stop offset="0.7" stop-color="#FF6734"/>
<stop offset="1" stop-color="#FF444E"/>
</linearGradient>
</defs>
</svg>
